<?xml version="1.0" encoding="utf-8"?>
<!-- Generator: Adobe Illustrator 25.4.1, SVG Export Plug-In . SVG Version: 6.00 Build 0)  -->
<svg version="1.1" id="图层_1" xmlns="http://www.w3.org/2000/svg" xmlns:xlink="http://www.w3.org/1999/xlink" x="0px" y="0px"
	 viewBox="0 0 190 50" style="enable-background:new 0 0 190 50;" xml:space="preserve">
<style type="text/css">
	.st0{fill-rule:evenodd;clip-rule:evenodd;fill:#0B3194;}
	.st1{fill-rule:evenodd;clip-rule:evenodd;fill:#FF6600;}
</style>
<g>
	<path class="st0" d="M91,5.7h26.4V9h-11.1v6.2h11.1v3.3h-10l6.7,8.5c1,1,1.5,1.4,3.4,1.4c0,0.9,0,1.9,0,2.8c-1.2,0-2.4,0-3.6,0
		c-1.4,0-2.2-0.4-3.3-1.5l-6.5-7.3l-6.5,7.3c-1.1,1.1-1.9,1.5-3.3,1.5c-1.2,0-2.4,0-3.6,0c0-0.9,0-1.9,0-2.8c1.9,0,2.4-0.4,3.4-1.4
		l6.7-8.5h-10v-3.3h10.3V9H91V5.7z"/>
	<rect x="124" y="16.7" class="st0" width="27.5" height="3.3"/>
	<path class="st0" d="M54.9,3.1H80v10.8H55.5c-3.4,0-6.2,2.8-6.2,6.2v14.1l-10.8-5.7v-9C38.5,10.5,45.9,3.1,54.9,3.1z"/>
	<path class="st0" d="M63.6,45H38.5V34.2h24.6c0.7,0,1.4-0.1,2-0.3l7.8,8.2C70.3,43.9,67.1,45,63.6,45L63.6,45z M68.8,30.3l7.8,8.2
		c2.1-2.8,3.4-6.2,3.4-10v-9L69.3,14v14.1C69.3,28.9,69.1,29.6,68.8,30.3z"/>
	<polygon class="st1" points="54.3,19.6 63.6,19.6 63.6,24.9 61.2,22.4 57.5,25.9 60.3,28.8 54.3,28.8 	"/>
	<path class="st0" d="M151.1,42h-1.2H146c0,0.8,0.6,1.8,1.6,1.8h3.4v1h-3.3c-1.7,0-2.7-1.7-2.7-3.3c0-0.5,0.1-0.9,0.2-1.3
		c0.4-1.1,1.5-1.9,2.7-1.9C149.4,38.4,151.1,38.8,151.1,42L151.1,42z M150.1,41.2c-0.1-2.3-3.9-2.7-4.1,0
		C147.4,41.2,148.8,41.2,150.1,41.2z"/>
	<path class="st0" d="M137,44.8h-1v-6.3h3.6c0.4,0,0.7,0.1,1,0.2c0.3,0.2,0.6,0.3,0.8,0.6c0.2,0.3,0.4,0.6,0.6,1
		c0.1,0.4,0.2,0.8,0.2,1.2v3.2h-1v-3.2c0-0.4-0.1-0.7-0.2-1s-0.3-0.6-0.6-0.7c-0.3-0.2-0.5-0.3-0.8-0.3H137V44.8z"/>
	<path class="st0" d="M116.4,44.8c0,0.4-0.1,0.7-0.2,1.1c-0.2,0.3-0.4,0.6-0.6,0.8c-0.3,0.2-0.6,0.3-0.9,0.3h-4v-1h4
		c0.2,0,0.4-0.1,0.5-0.3s0.2-0.6,0.2-0.8v-0.4H113c-0.4,0-0.7-0.1-1.1-0.3c-0.3-0.2-0.6-0.3-0.9-0.6s-0.4-0.7-0.6-1.1
		c-0.1-0.4-0.2-0.8-0.2-1.3v-2.5h1v2.5c0,0.4,0.1,0.7,0.2,1.1c0.2,0.3,0.4,0.6,0.6,0.8c0.3,0.2,0.6,0.3,0.9,0.3h2.4v-4.7h1
		L116.4,44.8L116.4,44.8z"/>
	<path class="st0" d="M102.5,44.7h-1v-8.8h1C102.5,45,102.5,33.7,102.5,44.7z"/>
	<path class="st0" d="M98.8,42c0,0.4-0.1,1.1-0.3,1.5s-0.4,0.7-0.7,0.9c-0.3,0.2-0.6,0.3-1,0.3h-6.1v-1.1h6.1c0.3,0,0.5-0.1,0.7-0.4
		c0.2-0.2,0.4-0.9,0.4-1.2s-0.2-0.6-0.4-0.9c-0.2-0.2-0.4-0.4-0.7-0.4h-4.1c-0.4,0-0.7-0.1-1-0.3c-0.3-0.2-0.5-0.5-0.7-0.9
		s-0.3-0.8-0.3-1.2s0.1-0.8,0.3-1.2s0.4-0.7,0.7-0.9c0.3-0.2,0.6-0.3,1-0.3h5.8V37h-5.8c-0.3,0-0.5,0.1-0.7,0.4
		c-0.2,0.2-0.3,0.6-0.3,1c0,0.3,0.1,0.6,0.3,0.9c0.2,0.2,0.4,0.4,0.7,0.4h4.1c0.4,0,0.7,0.1,1,0.3c0.3,0.2,0.5,0.5,0.7,0.9
		C98.7,41.2,98.8,41.5,98.8,42z"/>
	<path class="st0" d="M107.9,44.7h-1.7l-4.2-3.2l0.8-0.6C108,44.9,101.6,39.8,107.9,44.7z"/>
	<path class="st0" d="M107.4,38.2h-1.7l-3.6,2.7l0.3,1C107.6,38.2,101.1,43,107.4,38.2z"/>
	<path class="st0" d="M129,35.4c2.6,0,4.7,2.2,4.7,4.9s-2.1,4.9-4.7,4.9c-2.6,0-4.7-2.2-4.7-4.9C124.4,37.5,126.5,35.4,129,35.4
		L129,35.4z M129,36.5c-2,0-3.6,1.7-3.6,3.8s1.6,3.8,3.6,3.8s3.6-1.7,3.6-3.8S131,36.5,129,36.5z"/>
</g>
</svg>
