<?xml version="1.0" encoding="utf-8"?>
<!-- Generator: Adobe Illustrator 25.4.1, SVG Export Plug-In . SVG Version: 6.00 Build 0)  -->
<svg version="1.1" id="图层_1" xmlns="http://www.w3.org/2000/svg" xmlns:xlink="http://www.w3.org/1999/xlink" x="0px" y="0px"
	 viewBox="0 0 190 50" style="enable-background:new 0 0 190 50;" xml:space="preserve">
<style type="text/css">
	.st0{fill-rule:evenodd;clip-rule:evenodd;fill:#FFFFFF;}
</style>
<g>
	<path class="st0" d="M52.5,5.7h26.4V9H67.8v6.2h11.1v3.3h-10l6.7,8.5c1,1,1.5,1.4,3.4,1.4c0,0.9,0,1.9,0,2.8c-1.2,0-2.4,0-3.6,0
		c-1.4,0-2.2-0.4-3.3-1.5l-6.5-7.3l-6.5,7.3c-1.1,1.1-1.9,1.5-3.3,1.5c-1.2,0-2.4,0-3.6,0c0-0.9,0-1.9,0-2.8c1.9,0,2.4-0.4,3.4-1.4
		l6.7-8.5h-10v-3.3h10.3V9H52.5V5.7z"/>
	<rect x="85.5" y="16.7" class="st0" width="27.5" height="3.3"/>
	<path class="st0" d="M16.4,3.1h25.1v10.8H17c-3.4,0-6.2,2.8-6.2,6.2v14.1L0,28.5v-9C0,10.5,7.4,3.1,16.4,3.1z"/>
	<path class="st0" d="M25.1,45H0V34.2h24.6c0.7,0,1.4-0.1,2-0.3l7.8,8.2C31.8,43.9,28.6,45,25.1,45L25.1,45z M30.3,30.3l7.8,8.2
		c2.1-2.8,3.4-6.2,3.4-10v-9L30.8,14v14.1C30.8,28.9,30.6,29.6,30.3,30.3z"/>
	<polygon class="st0" points="15.8,19.6 25.1,19.6 25.1,24.9 22.7,22.4 19,25.9 21.8,28.8 15.8,28.8 	"/>
	<path class="st0" d="M112.6,42.1l-1.2,0h-3.9c0,0.8,0.6,1.8,1.6,1.8h3.4v1h-3.3c-1.7,0-2.7-1.7-2.7-3.3c0-0.5,0.1-0.9,0.2-1.3
		c0.4-1.1,1.5-1.9,2.7-1.9C110.9,38.4,112.6,38.8,112.6,42.1L112.6,42.1z M111.6,41.2c-0.1-2.3-3.9-2.7-4.1,0
		C108.9,41.2,110.3,41.2,111.6,41.2z"/>
	<path class="st0" d="M98.5,44.8h-1v-6.3h3.6c0.4,0,0.7,0.1,1,0.2c0.3,0.2,0.6,0.3,0.8,0.6c0.2,0.3,0.4,0.6,0.6,1
		c0.1,0.4,0.2,0.8,0.2,1.2v3.2h-1v-3.2c0-0.4-0.1-0.7-0.2-1c-0.1-0.3-0.3-0.6-0.6-0.7c-0.3-0.2-0.5-0.3-0.8-0.3h-2.6V44.8z"/>
	<path class="st0" d="M77.9,44.8c0,0.4-0.1,0.7-0.2,1.1c-0.2,0.3-0.4,0.6-0.6,0.8c-0.3,0.2-0.6,0.3-0.9,0.3h-4v-1h4
		c0.2,0,0.4-0.1,0.5-0.3c0.1-0.2,0.2-0.6,0.2-0.8v-0.4h-2.4c-0.4,0-0.7-0.1-1.1-0.3c-0.3-0.2-0.6-0.3-0.9-0.6
		c-0.3-0.3-0.4-0.7-0.6-1.1c-0.1-0.4-0.2-0.8-0.2-1.3v-2.5h1v2.5c0,0.4,0.1,0.7,0.2,1.1c0.2,0.3,0.4,0.6,0.6,0.8
		c0.3,0.2,0.6,0.3,0.9,0.3h2.4v-4.7h1V44.8z"/>
	<path class="st0" d="M64,44.7h-1v-8.8h1C64,45.1,64,33.7,64,44.7z"/>
	<path class="st0" d="M60.3,42.1c0,0.4-0.1,1.1-0.3,1.5c-0.2,0.4-0.4,0.7-0.7,0.9s-0.6,0.3-1,0.3h-6.1v-1.1h6.1
		c0.3,0,0.5-0.1,0.7-0.4c0.2-0.2,0.4-0.9,0.4-1.2c0-0.3-0.2-0.6-0.4-0.9c-0.2-0.2-0.4-0.4-0.7-0.4h-4.1c-0.4,0-0.7-0.1-1-0.3
		c-0.3-0.2-0.5-0.5-0.7-0.9c-0.2-0.4-0.3-0.8-0.3-1.2c0-0.4,0.1-0.8,0.3-1.2c0.2-0.4,0.4-0.7,0.7-0.9c0.3-0.2,0.6-0.3,1-0.3H60v1.1
		h-5.8c-0.3,0-0.5,0.1-0.7,0.4c-0.2,0.2-0.3,0.6-0.3,1c0,0.3,0.1,0.6,0.3,0.9c0.2,0.2,0.4,0.4,0.7,0.4h4.1c0.4,0,0.7,0.1,1,0.3
		c0.3,0.2,0.5,0.5,0.7,0.9C60.2,41.2,60.3,41.6,60.3,42.1z"/>
	<path class="st0" d="M69.4,44.7h-1.7l-4.2-3.2l0.8-0.6C69.5,44.9,63.1,39.8,69.4,44.7z"/>
	<path class="st0" d="M68.9,38.3h-1.7L63.6,41l0.3,1C69.1,38.2,62.6,43,68.9,38.3z"/>
	<path class="st0" d="M90.5,35.4c2.6,0,4.7,2.2,4.7,4.9c0,2.7-2.1,4.9-4.7,4.9c-2.6,0-4.7-2.2-4.7-4.9C85.9,37.6,88,35.4,90.5,35.4
		L90.5,35.4z M90.5,36.6c-2,0-3.6,1.7-3.6,3.8c0,2.1,1.6,3.8,3.6,3.8c2,0,3.6-1.7,3.6-3.8C94.1,38.3,92.5,36.6,90.5,36.6z"/>
</g>
</svg>
