<?xml version="1.0" encoding="utf-8"?>
<!-- Generator: Adobe Illustrator 25.4.1, SVG Export Plug-In . SVG Version: 6.00 Build 0)  -->
<svg version="1.1" id="图层_1" xmlns="http://www.w3.org/2000/svg" xmlns:xlink="http://www.w3.org/1999/xlink" x="0px" y="0px"
	 viewBox="0 0 536 207" style="enable-background:new 0 0 536 207;" xml:space="preserve">
<style type="text/css">
	.st0{fill-rule:evenodd;clip-rule:evenodd;fill:#0B3194;}
	.st1{fill-rule:evenodd;clip-rule:evenodd;fill:#FF6600;}
</style>
<g>
	<path class="st0" d="M249.9,17.6h117.7v14.9h-49.3V60h49.3V75h-44.7l30.1,38.1c4.5,4.5,6.7,6.1,15.3,6.1c0,4.1,0,8.3,0,12.4
		c-5.4,0-10.8,0-16.2,0c-6.2,0-9.7-1.8-14.7-6.8l-28.8-32.5l-28.8,32.5c-5,5-8.4,6.8-14.7,6.8c-5.4,0-10.8,0-16.2,0
		c0-4.1,0-8.3,0-12.4c8.6,0,10.8-1.6,15.3-6.1L294.3,75h-44.5V60H296V32.5h-46.2V17.6z"/>
	<rect x="397.2" y="66.7" class="st0" width="122.8" height="14.9"/>
	<path class="st0" d="M88.8,6H201v48.2H91.2c-15.1,0-27.5,12.4-27.5,27.5v62.9l-48.2-25.3V79.4C15.5,39,48.5,6,88.8,6z"/>
	<path class="st0" d="M127.6,193.2H15.5V145h109.8c3.2,0,6.2-0.5,9.1-1.5l35,36.7C157.4,188.3,143.1,193.2,127.6,193.2L127.6,193.2z
		 M150.8,127.6l35,36.7c9.5-12.4,15.2-27.8,15.2-44.5V79.8l-48.2-25.3v62.9C152.8,121,152.1,124.5,150.8,127.6z"/>
	<polygon class="st1" points="86.2,79.5 127.6,79.5 127.6,103.2 116.9,92.1 100.4,107.8 112.9,120.9 86.2,120.9 	"/>
	<path class="st0" d="M518.4,180.1l-5.2-0.1h-17.6c0,3.6,2.8,8.2,7.1,8.2h15v4.3h-14.7c-7.7,0-12.3-7.5-12.3-14.6
		c0-2.1,0.3-4,0.9-5.8c1.8-5.1,6.6-8.5,12.3-8.5C510.5,163.7,518.4,165.3,518.4,180.1L518.4,180.1z M513.9,176
		c-0.6-10.3-17.3-12-18.2,0C501.8,176,507.8,176,513.9,176z"/>
	<path class="st0" d="M455.4,192.2h-4.3V164h16.1c1.6,0,3.2,0.4,4.6,1.1c1.4,0.7,2.7,1.5,3.7,2.8c1.1,1.3,1.9,2.8,2.5,4.5
		c0.6,1.7,0.9,3.5,0.9,5.5v14.2h-4.3V178c0-1.7-0.3-3.2-1-4.5c-0.7-1.4-1.6-2.5-2.7-3.3c-1.1-0.8-2.4-1.2-3.8-1.2h-11.8V192.2z"/>
	<path class="st0" d="M363.1,192.1c0,1.7-0.4,3.3-1.1,4.8c-0.7,1.4-1.6,2.6-2.8,3.4c-1.2,0.8-2.5,1.3-4,1.3h-18v-4.5h18
		c0.9,0,1.7-0.4,2.4-1.2c0.7-0.8,1-2.7,1-3.8v-1.9h-10.5c-1.7,0-3.3-0.4-4.8-1.2c-1.5-0.8-2.8-1.3-3.9-2.7c-1.1-1.4-2-2.9-2.6-4.7
		c-0.6-1.8-0.9-3.7-0.9-5.8v-11.3h4.5v11.3c0,1.7,0.4,3.3,1.1,4.7c0.7,1.4,1.6,2.6,2.8,3.4c1.2,0.8,2.5,1.3,3.9,1.3h10.5v-20.8h4.5
		V192.1z"/>
	<path class="st0" d="M301.3,191.9h-4.5v-39.3h4.5C301.3,193.4,301.3,142.5,301.3,191.9z"/>
	<path class="st0" d="M284.8,179.9c0,2-0.4,4.9-1.2,6.5c-0.8,1.6-1.9,2.9-3.2,3.9s-2.9,1.5-4.5,1.5h-27.3V187h27.3
		c1.3,0,2.3-0.5,3.2-1.6c0.9-1.1,1.6-4,1.6-5.4c0-1.5-0.7-2.7-1.6-3.8c-0.9-1.1-1.9-1.6-3.2-1.6h-18.3c-1.6,0-3.2-0.5-4.5-1.5
		c-1.4-1-2.4-2.3-3.3-3.9c-0.8-1.6-1.2-3.5-1.2-5.4c0-2,0.4-3.8,1.2-5.4c0.8-1.6,1.9-2.9,3.3-3.9c1.4-1,2.9-1.5,4.5-1.5h25.9v4.9
		h-25.9c-1.2,0-2.3,0.5-3.2,1.6c-0.9,1.1-1.3,2.9-1.3,4.4c0,1.5,0.4,2.7,1.3,3.8c0.9,1.1,1.9,1.6,3.2,1.6h18.3
		c1.7,0,3.2,0.5,4.5,1.5c1.3,1,2.4,2.3,3.2,3.9C284.3,176.1,284.8,177.9,284.8,179.9z"/>
	<path class="st0" d="M325.2,191.9h-7.4l-18.6-14.5l3.8-2.9C326,192.6,297.2,170.1,325.2,191.9z"/>
	<path class="st0" d="M323.1,163.3h-7.4l-16.3,12.1l1.4,4.5C324,162.7,295.1,184.1,323.1,163.3z"/>
	<path class="st0" d="M419.8,150.4c11.6,0,21,9.9,21,22.1c0,12.2-9.4,22.1-21,22.1c-11.6,0-21-9.9-21-22.1
		C398.9,160.3,408.2,150.4,419.8,150.4L419.8,150.4z M419.8,155.5c-8.9,0-16.1,7.6-16.1,16.9c0,9.3,7.2,16.9,16.1,16.9
		c8.9,0,16.1-7.6,16.1-16.9C435.9,163.1,428.7,155.5,419.8,155.5z"/>
</g>
</svg>
